<?xml version="1.0" standalone="no"?><!DOCTYPE svg PUBLIC "-//W3C//DTD SVG 1.1//EN" "http://www.w3.org/Graphics/SVG/1.1/DTD/svg11.dtd"><svg t="1571207507720" class="icon" viewBox="0 0 1024 1024" version="1.1" xmlns="http://www.w3.org/2000/svg" p-id="968" xmlns:xlink="http://www.w3.org/1999/xlink" width="128" height="128"><defs><style type="text/css">@font-face { font-weight: 400; font-style: normal; font-family: Inter-Loom; src: url("https://cdn.loom.com/assets/fonts/inter/Inter-UI-Regular.woff2") format("woff2"); }
@font-face { font-weight: 400; font-style: italic; font-family: Inter-Loom; src: url("https://cdn.loom.com/assets/fonts/inter/Inter-UI-Italic.woff2") format("woff2"); }
@font-face { font-weight: 500; font-style: normal; font-family: Inter-Loom; src: url("https://cdn.loom.com/assets/fonts/inter/Inter-UI-Medium.woff2") format("woff2"); }
@font-face { font-weight: 500; font-style: italic; font-family: Inter-Loom; src: url("https://cdn.loom.com/assets/fonts/inter/Inter-UI-MediumItalic.woff2") format("woff2"); }
@font-face { font-weight: 700; font-style: normal; font-family: Inter-Loom; src: url("https://cdn.loom.com/assets/fonts/inter/Inter-UI-Bold.woff2") format("woff2"); }
@font-face { font-weight: 700; font-style: italic; font-family: Inter-Loom; src: url("https://cdn.loom.com/assets/fonts/inter/Inter-UI-BoldItalic.woff2") format("woff2"); }
@font-face { font-weight: 900; font-style: normal; font-family: Inter-Loom; src: url("https://cdn.loom.com/assets/fonts/inter/Inter-UI-Black.woff2") format("woff2"); }
@font-face { font-weight: 900; font-style: italic; font-family: Inter-Loom; src: url("https://cdn.loom.com/assets/fonts/inter/Inter-UI-BlackItalic.woff2") format("woff2"); }
</style></defs><path d="M931.9 798.3H796.6c-5 0-9.1-4.1-9.1-9.1s4.1-9.1 9.1-9.1h135.3c5 0 9.1-4.1 9.1-9.1V131.6c0-5-4.1-9.1-9.1-9.1H90.8c-5 0-9.1 4.1-9.1 9.1v639.3c0 5 4.1 9.1 9.1 9.1h205.5c5 0 9.1 4.1 9.1 9.1s-4.1 9.1-9.1 9.1H90.8c-15.1 0-27.4-12.3-27.4-27.4V131.6c0-15.1 12.3-27.4 27.4-27.4h841.1c15.1 0 27.4 12.3 27.4 27.4v639.3c0 15.1-12.3 27.4-27.4 27.4z" fill="#000000" p-id="969"></path><path d="M509.2 939.4c-18.7 0-53.2-5.2-67.8-41.6-17.1-42.9-70.1-76.4-83.4-83-13.2-6.6-29.6-27.8-25.3-46 2.6-10.9 12.8-24 46.9-24 34.8 0 56.7 8.1 69.9 16V543.4c0-15.3 9.2-44.3 44.3-44.3 44.3 0 44.3 35.8 44.3 53v136c0 5-4.1 9.1-9.1 9.1s-9.1-4.1-9.1-9.1v-136c0-21.6-1.7-34.7-26-34.7-10.8 0-18.1 3.9-22.3 12-3.5 6.7-3.7 13.9-3.7 14v223c0 5.7-3.1 10.9-8.2 13.5-5.1 2.6-11.2 2.2-15.9-1.1-10.2-7.2-29.5-15.7-64-15.7-16.8 0-27.7 3.7-29.1 9.9-2 8.4 8.4 21.8 15.7 25.5 17.9 8.9 73.2 45.1 92.2 92.6 14 35.1 55.4 30.2 60.1 29.5 0.7-0.1 1.4-0.1 2.1-0.1h140c1.8 0 45.1-0.9 52.4-45 8.6-51.3 8.7-181.5 8.7-182.8-0.1-3.6-1.3-21.6-21.6-21.6-19.9 0-24.2 6.2-26.7 12-2.5 5.9-3.7 14.5-3.7 27.1v52.7c0 5-4.1 9.1-9.1 9.1s-9.1-4.1-9.1-9.1v-52.7c0-15.1 1.6-26 5.1-34.3 8.8-20.7 29.1-23.1 43.5-23.1 29.2 0 39.9 23.8 39.9 39.9 0 5.4-0.1 133-8.9 185.8-7.9 47.7-49.6 60.3-70.5 60.3h-140c-1.8 0.2-6 0.6-11.6 0.6z m11.9-0.7z" fill="#000000" p-id="970"></path><path d="M660.5 732.5c-5 0-9.1-4.1-9.1-9.1V675c0-28.3-11.5-30.4-30.4-30.4-20.3 0-21.5 18-21.6 21.6v52.6c0 5-4.1 9.1-9.1 9.1s-9.1-4.1-9.1-9.1v-52.7c0-16 10.6-39.9 39.9-39.9 24.1 0 48.6 5.8 48.6 48.6v48.3c0 5.3-4.1 9.4-9.2 9.4z" fill="#000000" p-id="971"></path><path d="M528.9 728.1c-5 0-9.1-4.1-9.1-9.1v-70.2c0-12.3 9.2-35.5 44.3-35.5 28.1 0 35.5 28.9 35.5 44.3v51.2c0 5-4.1 9.1-9.1 9.1s-9.1-4.1-9.1-9.1v-51.2c0-1-0.4-26-17.2-26-25.7 0-26 16.5-26 17.2V719c-0.2 5-4.3 9.1-9.3 9.1z" fill="#000000" p-id="972"></path><path d="M422.2 668.7c-1.6 0-3.2-0.4-4.6-1.3-27.2-16-50-38.9-65.9-66.2-16.4-28.1-25.1-60.2-25.1-92.9 0-101.8 82.9-184.7 184.7-184.7S696 406.4 696 508.3c0 34.5-9.6 68.2-27.7 97.3-2.7 4.3-8.3 5.6-12.6 2.9-4.3-2.7-5.6-8.3-2.9-12.6 16.3-26.3 24.9-56.6 24.9-87.7 0-91.8-74.6-166.4-166.4-166.4s-166.4 74.6-166.4 166.4c0 58.6 31.4 113.6 81.9 143.4 4.3 2.6 5.8 8.2 3.2 12.5-1.6 3-4.7 4.6-7.8 4.6z" fill="#000000" p-id="973"></path><path d="M456.5 433.4v65.8c16.4-11.9 34.4-15.4 54.9-8.5 26.3 8.8 35.1 17.7 35.1 58l54.9-31.7-144.9-83.6zM950.2 245.3H72.5c-5 0-9.1-4.1-9.1-9.1s4.1-9.1 9.1-9.1h877.7c5 0 9.1 4.1 9.1 9.1s-4.1 9.1-9.1 9.1zM748.3 183.9h-52.7c-5 0-9.1-4.1-9.1-9.1s4.1-9.1 9.1-9.1h52.7c5 0 9.1 4.1 9.1 9.1s-4 9.1-9.1 9.1zM826.2 202.5c-2.3 0-4.7-0.9-6.5-2.7-3.6-3.6-3.6-9.4 0-12.9l37.2-37.2c3.6-3.6 9.4-3.6 12.9 0 3.6 3.6 3.6 9.4 0 12.9l-37.2 37.2c-1.7 1.8-4 2.7-6.4 2.7z" fill="#000000" p-id="974"></path><path d="M863.5 202.5c-2.3 0-4.7-0.9-6.5-2.7l-37.2-37.2c-3.6-3.6-3.6-9.4 0-12.9 3.6-3.6 9.4-3.6 12.9 0l37.2 37.2c3.6 3.6 3.6 9.4 0 12.9-1.7 1.8-4.1 2.7-6.4 2.7z" fill="#000000" p-id="975"></path></svg>