<svg width="1024" height="1024" xmlns="http://www.w3.org/2000/svg" class="icon">
 <defs>
  <style type="text/css">@font-face { font-weight: 400; font-style: normal; font-family: Inter-Loom; src: url("https://cdn.useloom.com/assets/fonts/inter/Inter-UI-Regular.woff2") format("woff2"); }
@font-face { font-weight: 400; font-style: italic; font-family: Inter-Loom; src: url("https://cdn.useloom.com/assets/fonts/inter/Inter-UI-Italic.woff2") format("woff2"); }
@font-face { font-weight: 500; font-style: normal; font-family: Inter-Loom; src: url("https://cdn.useloom.com/assets/fonts/inter/Inter-UI-Medium.woff2") format("woff2"); }
@font-face { font-weight: 500; font-style: italic; font-family: Inter-Loom; src: url("https://cdn.useloom.com/assets/fonts/inter/Inter-UI-MediumItalic.woff2") format("woff2"); }
@font-face { font-weight: 700; font-style: normal; font-family: Inter-Loom; src: url("https://cdn.useloom.com/assets/fonts/inter/Inter-UI-Bold.woff2") format("woff2"); }
@font-face { font-weight: 700; font-style: italic; font-family: Inter-Loom; src: url("https://cdn.useloom.com/assets/fonts/inter/Inter-UI-BoldItalic.woff2") format("woff2"); }
@font-face { font-weight: 900; font-style: normal; font-family: Inter-Loom; src: url("https://cdn.useloom.com/assets/fonts/inter/Inter-UI-Black.woff2") format("woff2"); }
@font-face { font-weight: 900; font-style: italic; font-family: Inter-Loom; src: url("https://cdn.useloom.com/assets/fonts/inter/Inter-UI-BlackItalic.woff2") format("woff2"); }</style>
 </defs>
 <g>
  <title>background</title>
  <rect fill="none" id="canvas_background" height="1026" width="1026" y="-1" x="-1"/>
 </g>
 <g>
  <title>Layer 1</title>
  <path id="svg_1" d="m933.82656,411.19744l-49.87904,49.88928l-138.97728,-138.96704l49.88928,-49.88928c15.7184,-15.7184 39.35232,-17.664 52.6848,-4.34176l90.624,90.63424c13.32224,13.32224 11.37664,36.95616 -4.34176,52.67456zm-212.0192,-65.92512l138.97728,138.97728l-331.39712,331.39712c-1.52576,1.52576 -5.74464,5.7344 -11.66336,7.24992c-0.68608,0.32768 -1.3824,0.60416 -2.07872,0.82944l-172.9536,55.11168c-4.84352,1.536 -9.70752,0.55296 -12.86144,-2.6112c-3.16416,-3.16416 -4.1472,-8.02816 -2.63168,-12.86144l55.12192,-172.93312c0.23552,-0.7168 0.512,-1.41312 0.82944,-2.07872c1.51552,-5.92896 5.72416,-10.1376 7.26016,-11.66336l62.27968,-62.28992l-210.35008,0c-8.47872,0 -15.36,-6.87104 -15.36,-15.36s6.88128,-15.36 15.36,-15.36l241.07008,0l238.39744,-238.40768zm-235.17184,459.69408l-85.5552,-85.54496l-22.94784,72.04864l36.46464,36.46464l72.0384,-22.96832zm229.82656,-404.45952c-4.9152,-4.92544 -12.89216,-4.92544 -17.80736,0l-258.3552,258.34496c-4.9152,4.9152 -4.9152,12.89216 0,17.8176c4.9152,4.9152 12.9024,4.9152 17.8176,0l258.34496,-258.34496c4.92544,-4.92544 4.92544,-12.9024 0,-17.8176zm-15.60576,491.8272c0,9.23648 -7.50592,16.75264 -16.7424,16.75264l-304.8448,0l-27.53536,8.77568c-5.5296,1.76128 -11.2128,2.65216 -16.90624,2.65216c-12.11392,0 -23.37792,-4.15744 -32.59392,-11.42784l-158.24896,0c-9.23648,0 -16.76288,-7.50592 -16.76288,-16.75264l0,-703.44704c0,-9.23648 7.51616,-16.75264 16.76288,-16.75264l62.80192,0l0,26.5216c0,9.24672 7.49568,16.7424 16.75264,16.7424s16.75264,-7.49568 16.75264,-16.7424l0,-26.5216l96.29696,0l0,26.5216c0,9.24672 7.49568,16.7424 16.75264,16.7424s16.75264,-7.49568 16.75264,-16.7424l0,-26.5216l83.74272,0l0,26.5216c0,9.24672 7.49568,16.7424 16.75264,16.7424s16.75264,-7.49568 16.75264,-16.7424l0,-26.5216l92.11904,0l0,26.5216c0,9.24672 7.49568,16.7424 16.7424,16.7424c9.25696,0 16.76288,-7.49568 16.76288,-16.7424l0,-26.5216l71.17824,0c9.22624,0 16.7424,7.51616 16.7424,16.75264l0,116.00896l17.55136,-17.55136l32.69632,-32.69632l0,-65.76128c0,-36.93568 -30.0544,-66.99008 -66.99008,-66.99008l-71.17824,0l0,-40.47872c0,-9.24672 -7.49568,-16.75264 -16.76288,-16.75264c-9.23648,0 -16.7424,7.49568 -16.7424,16.75264l0,40.47872l-92.13952,0l0,-40.47872c0,-9.24672 -7.49568,-16.75264 -16.75264,-16.75264s-16.75264,7.49568 -16.75264,16.75264l0,40.47872l-83.74272,0l0,-40.47872c0,-9.24672 -7.49568,-16.75264 -16.75264,-16.75264s-16.75264,7.49568 -16.75264,16.75264l0,40.47872l-96.29696,0l0,-40.47872c0,-9.24672 -7.49568,-16.75264 -16.75264,-16.75264s-16.75264,7.49568 -16.75264,16.75264l0,40.47872l-62.80192,0c-36.93568,0 -67.00032,30.0544 -67.00032,66.99008l0,703.4368c0,36.93568 30.06464,66.99008 67.00032,66.99008l540.13952,0c36.93568,0 66.99008,-30.0544 66.99008,-66.99008l0,-243.87584l-50.24768,50.25792l0,193.62816l0.01024,0zm-130.83648,-569.77408l-327.68,0c-8.47872,0 -15.36,6.87104 -15.36,15.36s6.88128,15.36 15.36,15.36l327.68,0c8.47872,0 15.36,-6.87104 15.36,-15.36s-6.88128,-15.36 -15.36,-15.36zm0,123.84256l-327.68,0c-8.47872,0 -15.36,6.87104 -15.36,15.36s6.88128,15.36 15.36,15.36l327.68,0c8.47872,0 15.36,-6.87104 15.36,-15.36s-6.88128,-15.36 -15.36,-15.36z"/>
  <text style="cursor: move;" stroke="#000" transform="matrix(8.929384361994234,0,0,8.682944173230725,-2543.0962135408745,-4087.4309859695136) " xml:space="preserve" text-anchor="start" font-family="Helvetica, Arial, sans-serif" font-size="24" id="svg_2" y="531.035644" x="308.059629" stroke-width="0" fill="#CC7C65">ES6</text>
 </g>
</svg>