<?xml version="1.0" standalone="no"?><!DOCTYPE svg PUBLIC "-//W3C//DTD SVG 1.1//EN" "http://www.w3.org/Graphics/SVG/1.1/DTD/svg11.dtd"><svg t="1572400630353" class="icon" viewBox="0 0 1024 1024" version="1.1" xmlns="http://www.w3.org/2000/svg" p-id="1646" width="64" height="64" xmlns:xlink="http://www.w3.org/1999/xlink"><defs><style type="text/css">@font-face { font-weight: 400; font-style: normal; font-family: Inter-Loom; src: url("https://cdn.loom.com/assets/fonts/inter/Inter-UI-Regular.woff2") format("woff2"); }
@font-face { font-weight: 400; font-style: italic; font-family: Inter-Loom; src: url("https://cdn.loom.com/assets/fonts/inter/Inter-UI-Italic.woff2") format("woff2"); }
@font-face { font-weight: 500; font-style: normal; font-family: Inter-Loom; src: url("https://cdn.loom.com/assets/fonts/inter/Inter-UI-Medium.woff2") format("woff2"); }
@font-face { font-weight: 500; font-style: italic; font-family: Inter-Loom; src: url("https://cdn.loom.com/assets/fonts/inter/Inter-UI-MediumItalic.woff2") format("woff2"); }
@font-face { font-weight: 700; font-style: normal; font-family: Inter-Loom; src: url("https://cdn.loom.com/assets/fonts/inter/Inter-UI-Bold.woff2") format("woff2"); }
@font-face { font-weight: 700; font-style: italic; font-family: Inter-Loom; src: url("https://cdn.loom.com/assets/fonts/inter/Inter-UI-BoldItalic.woff2") format("woff2"); }
@font-face { font-weight: 900; font-style: normal; font-family: Inter-Loom; src: url("https://cdn.loom.com/assets/fonts/inter/Inter-UI-Black.woff2") format("woff2"); }
@font-face { font-weight: 900; font-style: italic; font-family: Inter-Loom; src: url("https://cdn.loom.com/assets/fonts/inter/Inter-UI-BlackItalic.woff2") format("woff2"); }
</style></defs><path d="M482.35551 289.647441c-18.844077 0-37.121699 5.513498-52.944682 15.785219-21.714117 14.161381-36.668535 35.913262-41.993214 61.365983-5.400207 25.528249-0.566455 51.471899 13.557162 73.186016 21.223189 32.51453 111.025225 87.68727 163.025815 116.463195l2.983331-1.963711c-42.635197-42.748488-87.68727-88.593598-130.813394-138.290603-4.078478-4.72046-3.625313-11.140286-3.247677-13.708217 0.264346-2.303585 1.510547-8.421301 6.759699-11.782269 4.342823-2.832276 9.969612-2.605694 14.350199 0.490928l1.623838 1.170674c19.561587 14.161381 27.303142 15.709692 29.720018 15.709692 0 0.151055 0.490928-0.490928 0.604219-2.56793 0.793037-9.894085-0.264346-20.61897-3.209913-32.892167-2.56793-10.649358-4.833751-18.655259-7.288391-26.056941-2.341348-6.759699 0.679746-15.445346 6.759699-19.448296 3.172149-2.001475 6.608644-2.530167 9.894085-1.85042 2.605694 0.641983 6.117716 2.341348 8.761174 6.684172l109.779023 185.23086c-5.966662-40.747013-23.337955-147.580469-46.638147-183.304912C546.025077 306.187933 515.436495 289.647441 482.35551 289.647441z" p-id="1647"></path><path d="M495.157398 436.170527c28.700398 31.155038 57.702906 60.724001 85.421449 88.669125l-67.068299-113.139991C509.922997 426.46526 502.332497 433.224959 495.157398 436.170527z" p-id="1648"></path><path d="M953.079805 573.819147l-6.193244-20.770025-6.419826-20.279097L932.762944 514.001475l-7.1751-18.806314-7.363918-18.353149-6.684172-18.088804-5.664552-18.806314-4.418351-18.730786 0.981856-8.685647 3.927423-8.119192 4.078478-8.761174 1.057383-8.005901-3.549786-16.61602-4.191769-16.351674-4.456114-16.842602-5.135861-16.162856-5.43797-16.351674L882.990412 289.269804 876.872695 272.955893l-6.45759-15.936274L863.27777 241.989674l-7.779318-15.218764L848.172297 211.627674l23.224664-14.387963L863.27777 183.153858l-9.176575-13.141761L844.962384 156.71928l-9.289866-12.688597-8.610119-10.573831-9.138811-10.196194-9.138811-9.176575-9.44092-9.176575-9.591975-8.685647 21.260953-8.081428L800.09913 80.814279l-10.611595-7.779318-11.253577-6.684172L767.131435 60.044254l-11.555687-6.382062-11.744505-5.589025-12.122142-5.513498-12.877416-5.098097-12.499779-4.947042-12.650833-4.758224-15.256528-4.984806L663.243546 18.881841l-15.407582-4.191769-14.992182-3.474259-15.822983-3.209913-15.634164-2.492403-15.785219-2.001475-15.89851-1.472784-15.558637-1.019619-15.860746-0.528692L522.687122 0l-16.351674 0.528692-15.822983 0.528692-15.671928 0.981856-15.747455 1.472784-15.558637 2.001475-16.351674 2.492403-16.125092 3.209913-16.351674 3.021095-16.238383 3.28544L362.342528 22.318336 346.066381 26.774451 329.676944 31.985839 314.042779 37.461573 298.710724 43.541525 283.680779 50.86768 268.273197 57.627379 253.771943 65.293406 239.38398 74.05458 225.713527 82.626936 212.609529 92.294439 199.732114 102.528397l-11.555687 10.196194-11.140286 10.573831L166.424546 134.476471 156.266116 145.994394 146.56085 158.87181 136.931111 171.031716l-8.685647 13.141761L120.126272 197.692875 112.082608 211.627674 104.983036 225.713527l-6.079953 14.350199-6.042189 14.161381-5.173624 14.727836L83.193391 283.643015 79.530314 298.97507l-3.021095 14.614545L72.090869 345.046762 70.391503 375.861927l0.755274 30.966219 2.983331 30.362 4.871515 30.550819 8.194719 29.871072 10.120667 29.002508 76.320401 123.902641c129.453902 133.305797 123.978168 266.46054 123.978168 266.46054l0.339873 26.321286 0.981856 80.700988 441.155333 0 1.85042-8.156955 0-25.868122 1.057383-25.905886 1.925948-57.853961 3.021095-29.455672 1.397256-6.910754 2.756749-5.626789 2.945567-5.060333 3.927423-4.191769 5.249152-2.907804 5.966662-2.077003 6.608644-2.15253 7.1751-1.019619 9.214338-0.944092 8.610119-0.528692 2.15253 0 8.647883 0.944092 8.119192 0.528692 8.647883 1.019619 7.930373 0.71751 9.101047 0.981856 8.723411 0.944092-21.714117 0.528692 9.629739 1.019619 9.74303 0.453164 10.536067 0.566455 6.193244-0.566455 6.419826-1.472784 6.608644-2.454639 6.268771-3.209913 6.004425-3.927423 5.135861-4.682697 4.30506-4.947042 3.776368-5.286915 2.454639-11.102522-1.359493-12.159906-2.303585-12.008851 0-11.668978 1.812657-5.211388 2.416876-4.418351 2.416876-4.758224 3.021095-3.965187 3.134386-4.191769 2.492403-4.493878 2.001475-4.607169 0.528692-4.984806-0.528692-5.702316-0.981856-4.984806-1.510547-5.135861-2.492403-4.909279-3.625313-4.758224-3.965187-4.418351-4.72046-3.58755-5.400207-3.58755 5.891134-3.021095 5.664552-3.474259 5.777843-4.191769 3.851896-3.927423 3.512022-4.72046 2.15253-4.947042 1.13291-4.682697-1.13291-4.947042-5.626789-17.824458-3.512022-16.427202-2.15253-14.992182 0-14.954418 8.610119-3.436495 7.703791-3.474259 6.721935-3.700841 5.43797-4.00295 4.191769-4.380587 2.530167-4.72046 1.43502-4.909279L953.079805 573.819147zM511.395781 130.66234l35.460097 25.94365L493.495796 229.980823l-35.535625-25.981413L511.395781 130.66234zM225.260363 383.263608 215.252987 340.439593l100.942322-23.48901L326.127157 359.887889 225.260363 383.263608zM316.686237 287.608202 237.571323 243.198112l21.563062-38.367901L338.36259 249.315828 316.686237 287.608202zM384.094409 117.180705l35.913262 83.268919-40.40714 17.409057-35.875498-83.306682L384.094409 117.180705zM560.299749 591.303732c-6.193244-3.323204-152.640802-81.64508-186.477062-133.607907-39.085411-59.930963-22.016227-140.480897 37.839209-179.49078 21.147662-13.708217 45.543-20.996607 70.618085-20.996607 44.183508 0 84.892757 22.05399 108.948222 58.949108 32.967694 50.641098 52.529282 201.771353 54.606284 218.76501l0.71751 6.382062-80.965334 52.793627L560.299749 591.303732zM679.330875 675.705561c-13.217289 8.572356-24.92403 12.688597-35.762207 12.688597-3.172149 0-6.306535-0.377637-9.214338-1.057383-13.103998-2.983331-20.052515-11.89556-21.789644-14.614545-1.095147-1.208438-3.021095-3.360968-4.682697-5.928898l-35.422334-54.341938 93.691695-60.950583 35.422334 54.341938c1.586075 2.341348 2.756749 4.833751 3.851896 7.250627 1.170674 1.85042 1.85042 4.040714 2.379112 5.815607C710.599203 628.387668 713.582534 653.009588 679.330875 675.705561z" p-id="1649"></path></svg>