<?xml version="1.0" standalone="no"?><!DOCTYPE svg PUBLIC "-//W3C//DTD SVG 1.1//EN" "http://www.w3.org/Graphics/SVG/1.1/DTD/svg11.dtd"><svg t="1556088880602" class="icon" style="" viewBox="0 0 1024 1024" version="1.1" xmlns="http://www.w3.org/2000/svg" p-id="1933" xmlns:xlink="http://www.w3.org/1999/xlink" width="64" height="64"><defs><style type="text/css">@font-face { font-weight: 400; font-style: normal; font-family: Inter-Loom; src: url("https://cdn.loom.com/assets/fonts/inter/Inter-UI-Regular.woff2") format("woff2"); }
@font-face { font-weight: 400; font-style: italic; font-family: Inter-Loom; src: url("https://cdn.loom.com/assets/fonts/inter/Inter-UI-Italic.woff2") format("woff2"); }
@font-face { font-weight: 500; font-style: normal; font-family: Inter-Loom; src: url("https://cdn.loom.com/assets/fonts/inter/Inter-UI-Medium.woff2") format("woff2"); }
@font-face { font-weight: 500; font-style: italic; font-family: Inter-Loom; src: url("https://cdn.loom.com/assets/fonts/inter/Inter-UI-MediumItalic.woff2") format("woff2"); }
@font-face { font-weight: 700; font-style: normal; font-family: Inter-Loom; src: url("https://cdn.loom.com/assets/fonts/inter/Inter-UI-Bold.woff2") format("woff2"); }
@font-face { font-weight: 700; font-style: italic; font-family: Inter-Loom; src: url("https://cdn.loom.com/assets/fonts/inter/Inter-UI-BoldItalic.woff2") format("woff2"); }
@font-face { font-weight: 900; font-style: normal; font-family: Inter-Loom; src: url("https://cdn.loom.com/assets/fonts/inter/Inter-UI-Black.woff2") format("woff2"); }
@font-face { font-weight: 900; font-style: italic; font-family: Inter-Loom; src: url("https://cdn.loom.com/assets/fonts/inter/Inter-UI-BlackItalic.woff2") format("woff2"); }
</style></defs><path d="M650.6 148c21.7 0 43.4 3.2 64.1 9.3l-61.6 61.6c-41.9 41.9-41.9 110.1 0 152 20.3 20.3 47.3 31.5 76 31.5s55.7-11.2 76-31.5l61.6-61.6c23.2 78.2 2.3 164.4-56.7 223.4-42.4 42.4-98.9 65.8-158.9 65.8-28.4 0-56.2-5.2-82.6-15.5l-31.7-12.4-24 24-264.2 264.1c-11.1 11.1-25.9 17.3-41.7 17.3-15.7 0-30.5-6.1-41.7-17.3-23-23-23-60.4 0-83.3l264.2-264.2 24-24-12.4-31.7C408.3 372 428 277.2 491.2 214c42.7-42.6 99.3-66 159.4-66m0-52c-71 0-141.9 27.1-196.1 81.2-80.4 80.4-100.8 197.7-61.9 297.2L128.5 738.6c-43.3 43.3-43.3 113.6 0 156.9 21.7 21.7 50.1 32.5 78.4 32.5 28.4 0 56.8-10.8 78.4-32.5l264.2-264.2c32.6 12.7 67 19.1 101.5 19.1 70.8 0 141.6-26.9 195.7-81 85.7-85.7 103.6-213.6 53.5-317-4.8-9.9-14.5-15.5-24.3-15.5-6.5 0-13 2.4-18.1 7.6L768.3 334c-10.8 10.8-25 16.2-39.2 16.2-14.2 0-28.4-5.4-39.2-16.2-21.7-21.7-21.7-56.8 0-78.4l89.5-89.5c13-13 8.6-34.5-7.9-42.4C733.5 105.2 692 96 650.6 96z" p-id="1934" fill="#000000"></path></svg>