<?xml version="1.0" standalone="no"?><!DOCTYPE svg PUBLIC "-//W3C//DTD SVG 1.1//EN" "http://www.w3.org/Graphics/SVG/1.1/DTD/svg11.dtd"><svg t="1545539519504" class="icon" style="" viewBox="0 0 1024 1024" version="1.1" xmlns="http://www.w3.org/2000/svg" p-id="4341" xmlns:xlink="http://www.w3.org/1999/xlink" width="128" height="128"><defs><style type="text/css">@font-face { font-weight: 400; font-style: normal; font-family: Inter-Loom; src: url("https://cdn.useloom.com/assets/fonts/inter/Inter-UI-Regular.woff2") format("woff2"); }
@font-face { font-weight: 400; font-style: italic; font-family: Inter-Loom; src: url("https://cdn.useloom.com/assets/fonts/inter/Inter-UI-Italic.woff2") format("woff2"); }
@font-face { font-weight: 500; font-style: normal; font-family: Inter-Loom; src: url("https://cdn.useloom.com/assets/fonts/inter/Inter-UI-Medium.woff2") format("woff2"); }
@font-face { font-weight: 500; font-style: italic; font-family: Inter-Loom; src: url("https://cdn.useloom.com/assets/fonts/inter/Inter-UI-MediumItalic.woff2") format("woff2"); }
@font-face { font-weight: 700; font-style: normal; font-family: Inter-Loom; src: url("https://cdn.useloom.com/assets/fonts/inter/Inter-UI-Bold.woff2") format("woff2"); }
@font-face { font-weight: 700; font-style: italic; font-family: Inter-Loom; src: url("https://cdn.useloom.com/assets/fonts/inter/Inter-UI-BoldItalic.woff2") format("woff2"); }
@font-face { font-weight: 900; font-style: normal; font-family: Inter-Loom; src: url("https://cdn.useloom.com/assets/fonts/inter/Inter-UI-Black.woff2") format("woff2"); }
@font-face { font-weight: 900; font-style: italic; font-family: Inter-Loom; src: url("https://cdn.useloom.com/assets/fonts/inter/Inter-UI-BlackItalic.woff2") format("woff2"); }
</style></defs><path d="M181.248 114.688h651.264c32.768 0 59.904 27.136 59.904 59.904v625.664c0 32.768-27.136 59.904-59.904 59.904H181.248c-33.28 0-59.904-27.136-59.904-59.904V174.592c-0.512-33.28 26.624-59.904 59.904-59.904z m601.6 764.416h-93.184v86.528H742.4l40.448-86.528z m-578.048 0h93.184v86.528H245.248L204.8 879.104zM403.968 272.896c-89.6 0-161.792 72.192-161.792 161.792s72.704 161.792 161.792 161.792c89.6 0 161.792-72.704 161.792-161.792 0-89.088-72.704-161.792-161.792-161.792z m356.864 91.136c-33.28-10.24-68.608 8.704-78.848 41.984-6.656 22.016-0.512 45.056 13.824 60.928l-80.896 195.072c25.088 25.088 58.88 35.84 101.888 30.72l40.96-207.36c20.992-5.12 38.4-20.992 45.056-43.008 10.24-32.768-8.704-68.096-41.984-78.336z m-351.744-3.072V305.152h-18.432v56.832c-13.312 2.56-25.6 8.192-35.328 16.896l-39.424-39.424-12.8 12.8 40.448 40.448c-7.68 10.752-12.288 23.552-13.312 36.864H274.432v18.432h56.832c2.56 13.312 8.192 25.6 16.896 35.328l-39.424 39.424 12.8 12.8 40.448-39.936c10.752 7.68 23.552 12.288 36.864 13.312v55.808h18.432V507.904c13.312-2.56 25.6-8.192 35.328-16.896l39.424 39.424 12.8-12.8-39.936-40.448c7.68-10.752 12.288-23.04 13.312-36.864h55.808v-18.432H476.672c-2.56-13.312-8.192-25.6-16.896-35.328l39.424-39.424-12.8-12.8-40.448 40.448c-10.24-8.192-23.04-12.8-36.864-13.824z" fill="#231815" p-id="4342"></path></svg>